<?xml version="1.0" encoding="utf-8"?>
<!-- Generator: Adobe Illustrator 24.3.0, SVG Export Plug-In . SVG Version: 6.00 Build 0)  -->
<svg version="1.1" id="Layer_1" xmlns="http://www.w3.org/2000/svg" xmlns:xlink="http://www.w3.org/1999/xlink" x="0px" y="0px"
	 viewBox="0 0 300 300" style="enable-background:new 0 0 300 300;" xml:space="preserve">
<style type="text/css">
	.st0{fill:#93BEBD;}
	.st1{fill:#AD946C;}
	.st2{fill:#518494;}
	.st3{fill:#242830;}
	.st4{enable-background:new    ;}
</style>
<g>
	<g>
		<g>
			<polygon class="st0" points="217.42,214.21 195.17,214.21 150.19,172.98 105.21,214.21 82.95,214.21 150.19,152.58 			"/>
			<polygon class="st1" points="172.22,214.07 150.19,193.88 128.16,214.07 			"/>
			<polygon class="st2" points="121.71,170.34 110.59,180.54 102.34,172.98 57.35,214.21 35.1,214.21 102.34,152.58 			"/>
			<polygon class="st2" points="178.29,170.34 189.41,180.54 197.66,172.98 242.65,214.21 264.9,214.21 197.66,152.58 			"/>
		</g>
		<polygon class="st3" points="35,208.1 102.41,146.31 126.21,168.12 150,146.31 173.79,168.12 197.59,146.31 265,208.1 265,4.04 
			150,4.04 35,4.04 		"/>
	</g>
	<g class="st4">
		<path class="st3" d="M64.83,282.69l-8.43-22.13l-8.63,22.13l-10.04-32.48h4.87l5.82,18.91l7.98-19.64l8.33,19.64l5.32-18.91h4.87
			L64.83,282.69z"/>
		<path class="st3" d="M79.18,282.04v-31.84H98.4v4.32H84.35v8.46h13.4v4.23h-13.4v10.54h14.4v4.28H79.18z"/>
		<path class="st3" d="M112.21,282.69c-3.31,0-6.37-1.06-9.54-2.07v-5.29c3.11,1.89,5.97,3.08,9.54,3.08c2.81,0,5.87-1.29,5.87-4.97
			c0-3.4-1.96-4.32-4.72-5.11l-2.26-0.46c-5.32-1.2-8.73-3.08-8.73-8.88c0-6.44,4.52-9.34,10.64-9.34c2.71,0,6.32,0.74,8.78,1.79
			v4.79c-3.21-1.47-4.92-2.21-8.43-2.21c-2.91,0-5.37,1.1-5.47,4.65c0,3.08,2.01,3.77,4.57,4.32l2.41,0.46
			c5.22,1.24,8.88,3.82,8.88,9.66C123.75,280.25,118.68,282.69,112.21,282.69z"/>
		<path class="st3" d="M140.82,254.53v27.51h-5.27v-27.51h-10.14v-4.32h25.44v4.32H140.82z"/>
		<path class="st3" d="M172.13,282.04c-2.46-2.02-2.81-5.43-4.06-8.19c-1.25-3.27-2.56-4.88-4.17-4.88h-0.2h-3.51v13.07h-5.17
			v-31.84h9.33c6.42,0,10.39,2.76,10.39,9.29c0,3.59-0.85,6.17-5.22,7.5c1.81,1.56,2.91,4.09,3.81,5.98
			c0.8,1.93,1.81,6.26,4.17,9.06H172.13z M164.35,254.44h-4.17v10.26h4.17c2.86,0,4.72-1.66,4.72-5.2
			C169.07,255.86,167.17,254.53,164.35,254.44z"/>
		<path class="st3" d="M192.76,282.69c-8.18,0-11.49-4.92-11.49-12.7v-19.78h5.22v19.23c0,5.43,1.05,8.97,6.27,8.97
			c4.92,0,6.02-3.63,6.02-8.97v-19.23h5.27v19.78C204.05,277.67,200.89,282.69,192.76,282.69z"/>
		<path class="st3" d="M223.88,282.69c-9.89,0-14.55-7.22-14.55-16.47c0-9.2,4.62-16.56,14.55-16.56c3.56,0,6.78,1.15,9.59,3.13
			v5.57c-2.76-3.08-5.37-4.32-9.38-4.32c-6.62,0-8.93,5.43-9.08,12.19c0,6.81,2.56,12.15,9.08,12.15c3.91,0,6.47-1.24,9.38-4.14v5.2
			C230.86,281.54,227.19,282.69,223.88,282.69z"/>
		<path class="st3" d="M251.53,254.53v27.51h-5.27v-27.51h-10.14v-4.32h25.44v4.32H251.53z"/>
	</g>
</g>
</svg>
