<svg height='300px' width='300px'  fill="#02A9E6" xmlns="http://www.w3.org/2000/svg" xmlns:xlink="http://www.w3.org/1999/xlink" xml:space="preserve" version="1.1" style="shape-rendering:geometricPrecision;text-rendering:geometricPrecision;image-rendering:optimizeQuality;" viewBox="0 0 846.66 846.66" x="0px" y="0px" fill-rule="evenodd" clip-rule="evenodd"><defs><style type="text/css">
   
    .fil0 {fill:#02A9E6}
   
  </style></defs><g><path class="fil0" d="M439.38 75.6l45.65 52.11 68.27 -28.96c11.06,-4.66 23.8,1.34 27.33,12.76l20.83 67.16 74.05 1.31c11.97,0.19 21.34,10.82 19.86,22.71l-8.24 69.9 67.13 31.33c10.16,4.76 14.56,16.86 9.8,27.03 -9.15,18.96 -25.72,43.4 -36.93,62.22l48.62 55.99c7.85,9.06 6.1,23.07 -3.67,29.95l-57.44 40.59 21.64 70.89c3.5,11.56 -3.77,23.51 -15.56,25.84l-68.88 13.72 -9.04 73.52c-1.54,12.59 -14.16,20.73 -26.2,17.04l-67.16 -15.23 -38.16 63.46c-6.19,10.33 -20.01,13.05 -29.63,5.87l-56.41 -42.11 -60.69 42.47c-9.94,6.94 -23.47,3.7 -29.4,-6.79l-34.32 -61.31 -72.82 14.14c-12.38,2.36 -23.75,-6.9 -24.18,-19.39l-6.3 -68.8 -72.17 -16.68c-11.81,-2.71 -18.55,-14.98 -14.74,-26.39l22.63 -66.6 -59.16 -44.62c-10.2,-7.69 -10.84,-22.7 -1.51,-31.27l46.64 -50.42 -35.91 -64.82c-5.89,-10.59 -1.26,-23.84 9.81,-28.6l64.53 -27.71 -6.43 -73.85c-1.1,-12.74 9.78,-23.28 22.36,-22.06l68.52 0.93 24.15 -70.07c4.09,-11.9 17.79,-17.21 28.84,-11.4l62.84 29 50.53 -54.15c8.57,-9.21 23.19,-8.47 30.92,1.29zm-182.85 355.48c-27.02,-27.02 14.07,-68.12 41.1,-41.1l91.02 91.03 159.39 -176.68c25.49,-28.33 68.64,10.48 43.14,38.83l-178.92 198.32c-10.85,13.34 -30.9,14.43 -43.1,2.22l-112.63 -112.62z"></path></g></svg>